<svg version="1.1" id="Layer_1" xmlns="http://www.w3.org/2000/svg" xmlns:xlink="http://www.w3.org/1999/xlink" x="0px" y="0px"
	 width="100%" viewBox="0 0 1563 1563" enable-background="new 0 0 1563 1563" xml:space="preserve">
<path fill="#000000" opacity="1.000000" stroke="none" 
	d="
M865.000000,1564.000000 
	C576.666748,1564.000000 288.833435,1564.000000 1.000116,1564.000000 
	C1.000077,1043.000122 1.000077,522.000305 1.000039,1.000326 
	C521.999756,1.000217 1042.999512,1.000217 1563.999512,1.000108 
	C1563.999634,521.999695 1563.999634,1042.999390 1563.999756,1563.999512 
	C1331.166626,1564.000000 1098.333374,1564.000000 865.000000,1564.000000 
M1236.645386,308.854370 
	C1236.400391,308.326355 1236.155396,307.798370 1234.988159,307.183289 
	C1141.496582,307.176483 1048.005127,307.187256 954.513611,307.092468 
	C951.109253,307.089020 949.151306,308.039795 947.437500,311.098663 
	C939.882324,324.583374 932.035339,337.904449 924.301819,351.289307 
	C876.933594,433.272156 829.568787,515.256958 782.186401,597.231689 
	C781.584045,598.273804 780.766663,599.191528 779.777893,600.537231 
	C769.467285,583.139160 759.501038,566.274109 749.488586,549.436462 
	C723.746765,506.146912 697.815186,462.969086 672.282104,419.556824 
	C650.613098,382.714539 629.361145,345.626495 608.043274,308.578979 
	C606.413269,305.746307 604.654602,304.738098 601.390869,304.753326 
	C572.561340,304.887878 543.730896,304.826874 514.900757,304.845123 
	C513.511536,304.846008 512.122437,305.047668 510.278778,305.191193 
	C511.404449,307.297699 512.208740,308.912079 513.109070,310.471008 
	C525.085510,331.207794 537.025696,351.965698 549.071716,372.661957 
	C577.349548,421.246094 605.828430,469.713837 633.950012,518.388123 
	C667.348633,576.196106 704.296753,631.921021 735.100342,691.257507 
	C742.225098,704.981873 750.472351,718.124207 758.220886,731.524048 
	C765.206482,743.604492 772.216553,755.670837 779.411377,768.080688 
	C780.442017,766.388489 781.242676,765.132080 781.987244,763.843201 
	C819.938293,698.140564 857.892273,632.439453 895.829163,566.728577 
	C929.022339,509.234161 962.224121,451.744720 995.303162,394.184662 
	C997.164612,390.945557 999.297363,390.073303 1002.844299,390.090790 
	C1031.173950,390.230530 1059.504395,390.168823 1087.834595,390.168854 
	C1089.426270,390.168854 1091.017944,390.168854 1093.627441,390.168854 
	C1088.858521,398.442688 1084.587158,405.860565 1080.309082,413.274536 
	C1029.899048,500.635834 979.506592,588.007385 929.070618,675.353699 
	C895.958313,732.698425 862.803284,790.018555 829.574768,847.295959 
	C827.946289,850.103088 827.871460,852.159607 829.527710,854.998291 
	C844.122498,880.011963 858.552124,905.121887 873.047974,930.193237 
	C873.737549,931.385925 874.590942,932.483826 875.514893,933.841675 
	C876.450195,932.311096 877.167725,931.192200 877.831848,930.042358 
	C939.496826,823.280640 1001.161743,716.518921 1062.817627,609.751953 
	C1103.425293,539.433105 1144.033569,469.114532 1184.613770,398.779755 
	C1201.827881,368.943726 1218.970703,339.066498 1236.645386,308.854370 
M617.977112,1141.545410 
	C640.204773,1180.027466 662.473816,1218.485718 684.580017,1257.037354 
	C686.317078,1260.066772 688.170593,1261.093506 691.591614,1261.077515 
	C720.255798,1260.942871 748.920837,1261.003906 777.585632,1260.992065 
	C779.007446,1260.991455 780.429260,1260.863159 782.714844,1260.752563 
	C615.102844,970.425354 447.864441,680.745483 280.459320,390.776733 
	C281.731628,390.439545 282.180389,390.216827 282.629333,390.216431 
	C312.793854,390.189850 342.958557,390.138153 373.122223,390.295898 
	C374.658966,390.303894 376.772980,391.770630 377.618195,393.164551 
	C381.665802,399.839996 385.290558,406.769775 389.206818,413.527344 
	C412.717377,454.095184 436.330078,494.603912 459.790558,535.200623 
	C519.409973,638.367859 578.972290,741.568115 638.546936,844.761292 
	C667.413635,894.763306 696.248962,944.783447 725.111938,994.787598 
	C775.359253,1081.839600 825.616150,1168.885986 875.879028,1255.928955 
	C876.737610,1257.416016 877.721802,1258.830566 878.926636,1260.715942 
	C880.214905,1258.590820 881.178223,1257.066284 882.079285,1255.505737 
	C920.433960,1189.071533 958.782715,1122.633911 997.133118,1056.197388 
	C1039.477783,982.841370 1081.821411,909.484680 1124.169067,836.130371 
	C1180.664185,738.270203 1237.153809,640.406738 1293.663086,542.554688 
	C1334.367310,472.070892 1375.083862,401.594299 1415.876465,331.161652 
	C1417.535278,328.297546 1418.062622,326.093628 1415.787964,323.335602 
	C1412.354492,319.172089 1409.169189,314.798798 1405.985596,310.436462 
	C1404.212891,308.007477 1402.175903,307.037170 1398.993164,307.067200 
	C1378.996216,307.255890 1358.994873,307.301483 1338.999390,307.048859 
	C1334.864014,306.996643 1332.844849,308.515533 1330.894287,311.906158 
	C1299.945679,365.702820 1268.860596,419.420868 1237.830688,473.170624 
	C1119.077637,678.873840 1000.333740,884.582275 881.574829,1090.282104 
	C880.783020,1091.653564 879.826965,1092.930420 878.660278,1094.683228 
	C866.113525,1072.937378 853.903625,1051.768799 841.687500,1030.603882 
	C812.991943,980.887512 784.294067,931.172546 755.596008,881.457642 
	C726.814758,831.598755 698.033508,781.739807 669.249695,731.882324 
	C618.350403,643.717957 567.453674,555.552063 516.547119,467.391846 
	C486.603912,415.536072 456.608917,363.710144 426.770233,311.794342 
	C424.777710,308.327576 422.636200,307.062164 418.609619,307.068176 
	C334.615295,307.193451 250.620621,307.206940 166.626495,307.022339 
	C162.731857,307.013794 160.506134,308.512299 158.471146,311.124298 
	C155.458130,314.991699 152.605057,318.983246 149.628647,322.879761 
	C147.870850,325.180969 147.632828,327.183807 149.259216,329.926086 
	C157.908218,344.509369 166.320724,359.233063 174.798630,373.917633 
	C225.220520,461.253510 275.635712,548.593201 326.057343,635.929260 
	C377.893707,725.715881 429.732758,815.500854 481.574432,905.284302 
	C526.924011,983.824219 572.278931,1062.360962 617.977112,1141.545410 
z"/>
<path fill="#FE0000" opacity="1.000000" stroke="none" 
	d="
M617.804321,1141.222290 
	C572.278931,1062.360962 526.924011,983.824219 481.574432,905.284302 
	C429.732758,815.500854 377.893707,725.715881 326.057343,635.929260 
	C275.635712,548.593201 225.220520,461.253510 174.798630,373.917633 
	C166.320724,359.233063 157.908218,344.509369 149.259216,329.926086 
	C147.632828,327.183807 147.870850,325.180969 149.628647,322.879761 
	C152.605057,318.983246 155.458130,314.991699 158.471146,311.124298 
	C160.506134,308.512299 162.731857,307.013794 166.626495,307.022339 
	C250.620621,307.206940 334.615295,307.193451 418.609619,307.068176 
	C422.636200,307.062164 424.777710,308.327576 426.770233,311.794342 
	C456.608917,363.710144 486.603912,415.536072 516.547119,467.391846 
	C567.453674,555.552063 618.350403,643.717957 669.249695,731.882324 
	C698.033508,781.739807 726.814758,831.598755 755.596008,881.457642 
	C784.294067,931.172546 812.991943,980.887512 841.687500,1030.603882 
	C853.903625,1051.768799 866.113525,1072.937378 878.660278,1094.683228 
	C879.826965,1092.930420 880.783020,1091.653564 881.574829,1090.282104 
	C1000.333740,884.582275 1119.077637,678.873840 1237.830688,473.170624 
	C1268.860596,419.420868 1299.945679,365.702820 1330.894287,311.906158 
	C1332.844849,308.515533 1334.864014,306.996643 1338.999390,307.048859 
	C1358.994873,307.301483 1378.996216,307.255890 1398.993164,307.067200 
	C1402.175903,307.037170 1404.212891,308.007477 1405.985596,310.436462 
	C1409.169189,314.798798 1412.354492,319.172089 1415.787964,323.335602 
	C1418.062622,326.093628 1417.535278,328.297546 1415.876465,331.161652 
	C1375.083862,401.594299 1334.367310,472.070892 1293.663086,542.554688 
	C1237.153809,640.406738 1180.664185,738.270203 1124.169067,836.130371 
	C1081.821411,909.484680 1039.477783,982.841370 997.133118,1056.197388 
	C958.782715,1122.633911 920.433960,1189.071533 882.079285,1255.505737 
	C881.178223,1257.066284 880.214905,1258.590820 878.926636,1260.715942 
	C877.721802,1258.830566 876.737610,1257.416016 875.879028,1255.928955 
	C825.616150,1168.885986 775.359253,1081.839600 725.111938,994.787598 
	C696.248962,944.783447 667.413635,894.763306 638.546936,844.761292 
	C578.972290,741.568115 519.409973,638.367859 459.790558,535.200623 
	C436.330078,494.603912 412.717377,454.095184 389.206818,413.527344 
	C385.290558,406.769775 381.665802,399.839996 377.618195,393.164551 
	C376.772980,391.770630 374.658966,390.303894 373.122223,390.295898 
	C342.958557,390.138153 312.793854,390.189850 282.629333,390.216431 
	C282.180389,390.216827 281.731628,390.439545 280.459320,390.776733 
	C447.864441,680.745483 615.102844,970.425354 782.714844,1260.752563 
	C780.429260,1260.863159 779.007446,1260.991455 777.585632,1260.992065 
	C748.920837,1261.003906 720.255798,1260.942871 691.591614,1261.077515 
	C688.170593,1261.093506 686.317078,1260.066772 684.580017,1257.037354 
	C662.473816,1218.485718 640.204773,1180.027466 617.804321,1141.222290 
z"/>
<path fill="#FE0000" opacity="1.000000" stroke="none" 
	d="
M1236.145996,309.208008 
	C1218.970703,339.066498 1201.827881,368.943726 1184.613770,398.779755 
	C1144.033569,469.114532 1103.425293,539.433105 1062.817627,609.751953 
	C1001.161743,716.518921 939.496826,823.280640 877.831848,930.042358 
	C877.167725,931.192200 876.450195,932.311096 875.514893,933.841675 
	C874.590942,932.483826 873.737549,931.385925 873.047974,930.193237 
	C858.552124,905.121887 844.122498,880.011963 829.527710,854.998291 
	C827.871460,852.159607 827.946289,850.103088 829.574768,847.295959 
	C862.803284,790.018555 895.958313,732.698425 929.070618,675.353699 
	C979.506592,588.007385 1029.899048,500.635834 1080.309082,413.274536 
	C1084.587158,405.860565 1088.858521,398.442688 1093.627441,390.168854 
	C1091.017944,390.168854 1089.426270,390.168854 1087.834595,390.168854 
	C1059.504395,390.168823 1031.173950,390.230530 1002.844299,390.090790 
	C999.297363,390.073303 997.164612,390.945557 995.303162,394.184662 
	C962.224121,451.744720 929.022339,509.234161 895.829163,566.728577 
	C857.892273,632.439453 819.938293,698.140564 781.987244,763.843201 
	C781.242676,765.132080 780.442017,766.388489 779.411377,768.080688 
	C772.216553,755.670837 765.206482,743.604492 758.220886,731.524048 
	C750.472351,718.124207 742.225098,704.981873 735.100342,691.257507 
	C704.296753,631.921021 667.348633,576.196106 633.950012,518.388123 
	C605.828430,469.713837 577.349548,421.246094 549.071716,372.661957 
	C537.025696,351.965698 525.085510,331.207794 513.109070,310.471008 
	C512.208740,308.912079 511.404449,307.297699 510.278778,305.191193 
	C512.122437,305.047668 513.511536,304.846008 514.900757,304.845123 
	C543.730896,304.826874 572.561340,304.887878 601.390869,304.753326 
	C604.654602,304.738098 606.413269,305.746307 608.043274,308.578979 
	C629.361145,345.626495 650.613098,382.714539 672.282104,419.556824 
	C697.815186,462.969086 723.746765,506.146912 749.488586,549.436462 
	C759.501038,566.274109 769.467285,583.139160 779.777893,600.537231 
	C780.766663,599.191528 781.584045,598.273804 782.186401,597.231689 
	C829.568787,515.256958 876.933594,433.272156 924.301819,351.289307 
	C932.035339,337.904449 939.882324,324.583374 947.437500,311.098663 
	C949.151306,308.039795 951.109253,307.089020 954.513611,307.092468 
	C1048.005127,307.187256 1141.496582,307.176483 1235.468994,307.551819 
	C1236.015137,308.349609 1236.080566,308.778839 1236.145996,309.208008 
z"/>
<path fill="#C00000" opacity="1.000000" stroke="none" 
	d="
M1236.395630,309.031189 
	C1236.080566,308.778839 1236.015137,308.349609 1235.929932,307.595367 
	C1236.155396,307.798370 1236.400391,308.326355 1236.395630,309.031189 
z"/>
</svg>